<?xml version="1.0" encoding="UTF-8"?>
<svg version="1.1" xmlns="http://www.w3.org/2000/svg" width="1024" height="1024">
<path d="M0 0 C337.92 0 675.84 0 1024 0 C1024 337.92 1024 675.84 1024 1024 C686.08 1024 348.16 1024 0 1024 C0 686.08 0 348.16 0 0 Z " fill="#F9F9F9" transform="translate(0,0)"/>
<path d="M0 0 C1.32212494 -0.01441132 1.32212494 -0.01441132 2.67095947 -0.02911377 C3.62613464 -0.03336365 4.58130981 -0.03761353 5.56542969 -0.04199219 C7.03807281 -0.0505423 7.03807281 -0.0505423 8.54046631 -0.05926514 C10.62185587 -0.06872356 12.70326047 -0.07525245 14.78466797 -0.07910156 C17.96055498 -0.08878562 21.135789 -0.11979238 24.31152344 -0.15136719 C26.33365501 -0.15789937 28.35579122 -0.163149 30.37792969 -0.16699219 C31.32500793 -0.17933899 32.27208618 -0.19168579 33.24786377 -0.20440674 C39.34687054 -0.18393336 43.58878042 0.64931012 48.49511719 4.56347656 C54.66239748 11.4884513 56.34147996 20.21950401 58.35058594 29.05957031 C58.61266846 30.2086084 58.87475098 31.35764648 59.14477539 32.54150391 C59.34031006 33.40598145 59.53584473 34.27045898 59.73730469 35.16113281 C60.87498071 35.16075579 62.01265673 35.16037876 63.18480778 35.15999031 C90.86003846 35.15218804 118.53507324 35.17875457 146.21023655 35.24141121 C148.8739629 35.24728334 151.53768926 35.2531067 154.20141602 35.25878906 C154.86349632 35.26020581 155.52557663 35.26162257 156.20771997 35.26308225 C166.25870269 35.28400752 176.30959588 35.28737837 186.3605957 35.28125 C198.02495568 35.27432472 209.68906971 35.28834318 221.35336918 35.32756889 C227.53026756 35.34760816 233.70677961 35.35712042 239.88369942 35.34155655 C245.69755437 35.32723828 251.5106707 35.34092091 257.32443047 35.37608528 C259.45811522 35.38405431 261.59186651 35.38179093 263.7255249 35.36852455 C266.6404075 35.35193341 269.5528152 35.37222367 272.46754456 35.40164185 C273.31094519 35.38805575 274.15434582 35.37446965 275.02330405 35.36047184 C280.46915186 35.46720744 283.34234566 36.77903587 287.33663219 40.48470867 C289.34510917 42.88859631 290.70735695 45.02298194 290.79077148 48.19311523 C290.03606167 53.71860156 288.94418705 59.07460601 287.54980469 64.47363281 C287.3298584 65.34044678 287.10991211 66.20726074 286.88330078 67.1003418 C285.14224985 73.85042186 283.16031275 80.51224314 281.10742188 87.17285156 C278.95962196 94.22176254 277.11338493 101.33231379 275.29980469 108.47363281 C273.0297758 117.35213601 270.66392973 126.18969054 268.04980469 134.97363281 C267.776604 135.9156958 267.50340332 136.85775879 267.22192383 137.82836914 C264.56730955 146.5742535 260.83957284 152.37693406 252.93261719 157.28027344 C250.07706813 158.4260498 247.68854861 158.45215759 244.61230469 158.50488281 C242.74880371 158.54718018 242.74880371 158.54718018 240.84765625 158.59033203 C240.18189575 158.60159119 239.51613525 158.61285034 238.8302002 158.62445068 C235.16843795 158.6886303 231.50764225 158.7887464 227.84667969 158.88769531 C227.08240662 158.90792755 226.31813354 158.92815979 225.53070068 158.94900513 C218.00718569 159.15953161 210.49971183 159.58313673 202.98730469 160.03613281 C187.13583329 160.98136397 171.27592069 161.68546521 155.41143131 162.36715221 C150.1470248 162.59369078 144.88289618 162.82597418 139.61889648 163.06176758 C138.88703471 163.09450303 138.15517294 163.12723848 137.40113354 163.16096592 C134.49950644 163.29076188 131.59787959 163.42056177 128.6962719 163.55079079 C120.99893211 163.89569603 113.30169037 164.22365825 105.60125732 164.49234009 C102.36861582 164.60843108 99.13711633 164.74487262 95.90557861 164.88818359 C93.87412903 164.97061684 91.84154535 165.02346983 89.80908203 165.07519531 C84.01503513 165.19949504 84.01503513 165.19949504 78.85375977 167.46289062 C76.61544685 169.97452888 75.7647956 171.96476919 75.29980469 175.28613281 C75.72494246 178.0798953 76.15830996 179.83419321 77.73730469 182.16113281 C81.41670092 184.61406363 83.20387277 184.41371984 87.59420776 184.41941833 C88.64631744 184.42493189 88.64631744 184.42493189 89.71968186 184.43055683 C92.07572725 184.44055642 94.43153754 184.43638219 96.78759766 184.43237305 C98.47448986 184.43675899 100.16137991 184.44206067 101.8482666 184.44821167 C105.48398031 184.45972332 109.11963564 184.46517194 112.75536728 184.46609306 C118.50347971 184.46803112 124.25147116 184.48606986 129.99954224 184.5068512 C144.2783883 184.55607722 158.55726729 184.58692926 172.83618164 184.6081543 C183.92924696 184.62466973 195.0222089 184.64746584 206.11520493 184.69117504 C211.82990367 184.71297402 217.54440613 184.72100712 223.25914359 184.71878231 C226.81468655 184.72044813 230.37010121 184.73449112 233.92559814 184.75199509 C235.57474968 184.75759827 237.22392779 184.75807644 238.87308121 184.75305748 C241.12449284 184.74692392 243.3750933 184.75913278 245.62643433 184.77586365 C247.51625691 184.77888064 247.51625691 184.77888064 249.44425774 184.78195858 C253.03274485 185.19515094 254.88357778 185.98420337 257.73730469 188.16113281 C260.19395666 191.84611077 260.4381696 194.88085067 259.73730469 199.16113281 C257.94366558 201.97116742 256.71849533 203.67053749 253.73730469 205.16113281 C251.36327968 205.23229663 248.98729792 205.24522366 246.61230469 205.22363281 C245.33097656 205.21460938 244.04964844 205.20558594 242.72949219 205.19628906 C241.24835938 205.17888672 241.24835938 205.17888672 239.73730469 205.16113281 C240.72730469 206.86269531 240.72730469 206.86269531 241.73730469 208.59863281 C244.56252382 214.25908959 244.65919073 219.32405166 242.71630859 225.30322266 C242.3932373 226.24633301 242.07016602 227.18944336 241.73730469 228.16113281 C243.01895508 228.15065918 244.30060547 228.14018555 245.62109375 228.12939453 C250.37708746 228.09318884 255.13306899 228.07023019 259.88916016 228.05126953 C261.94744923 228.04121327 264.00572402 228.02756652 266.06396484 228.01025391 C269.02282232 227.98598928 271.98149086 227.97464593 274.94042969 227.96582031 C275.86035706 227.95549774 276.78028442 227.94517517 277.72808838 227.93453979 C278.58867859 227.93438873 279.4492688 227.93423767 280.3359375 227.93408203 C281.4684494 227.9274202 281.4684494 227.9274202 282.62384033 227.92062378 C285.09520966 228.20186185 286.63972578 228.83074223 288.73730469 230.16113281 C290.88095094 233.37660219 291.0010689 234.30017163 291.05957031 238.01220703 C291.0787854 238.99687958 291.09800049 239.98155212 291.11779785 240.99606323 C291.13054749 242.58984299 291.13054749 242.58984299 291.14355469 244.21582031 C291.15495483 245.30951935 291.16635498 246.40321838 291.17810059 247.53005981 C291.19700018 249.84503305 291.21006842 252.16006009 291.21777344 254.47509766 C291.23719387 258.01592836 291.29923488 261.55444071 291.36230469 265.09472656 C291.37536434 267.34341068 291.38586545 269.59211142 291.39355469 271.84082031 C291.41824829 272.89929169 291.44294189 273.95776306 291.46838379 275.04830933 C291.46238159 276.03928619 291.45637939 277.03026306 291.45019531 278.05126953 C291.4611322 279.35340897 291.4611322 279.35340897 291.47229004 280.68185425 C290.37156817 284.39484815 288.02942807 286.33820357 284.73730469 288.16113281 C281.36539055 288.87815127 278.07180014 288.8366621 274.63438416 288.79605103 C273.62006445 288.80385098 272.60574474 288.81165093 271.56068808 288.81968725 C268.16337979 288.83962386 264.76718956 288.82383532 261.36987305 288.80810547 C258.93377529 288.81488075 256.49768265 288.82378338 254.06159973 288.83465576 C248.13301061 288.85509595 242.20471166 288.85209394 236.27613061 288.83759256 C231.45792604 288.8262955 226.63981016 288.8247714 221.82159615 288.83021164 C220.7925466 288.83136089 220.7925466 288.83136089 219.74270817 288.83253335 C218.34901 288.83413199 216.95531186 288.83575306 215.56161375 288.83739631 C202.49736068 288.85164922 189.43328313 288.83526781 176.36905885 288.80839448 C165.15993251 288.78605104 153.95106504 288.78994041 142.74194336 288.81298828 C129.72255156 288.83974587 116.70331348 288.85028122 103.68389803 288.83492696 C102.29566453 288.83333423 100.90743101 288.83176237 99.51919746 288.83021164 C98.8361716 288.82944026 98.15314575 288.82866888 97.44942213 288.82787413 C92.63662796 288.82355735 87.82393133 288.83084304 83.01115227 288.84260941 C76.53417585 288.85809653 70.05757367 288.84707088 63.58064079 288.81813812 C61.20099705 288.81151616 58.82131222 288.81344377 56.44168472 288.82445145 C53.19831023 288.8380736 49.95651487 288.82102968 46.71324158 288.79605103 C45.76694333 288.80720463 44.82064507 288.81835824 43.84567112 288.82984984 C39.29194855 288.76161371 37.35723517 288.64110856 33.65307045 285.77319145 C31.56092198 282.92064308 31.11017309 281.66160741 31.10620117 278.17480469 C31.09366806 277.21030396 31.08113495 276.24580322 31.06822205 275.2520752 C31.08148026 274.22175171 31.09473846 273.19142822 31.10839844 272.12988281 C31.10598648 271.06120972 31.10357452 269.99253662 31.10108948 268.89147949 C31.10206754 266.63546024 31.11545132 264.37941688 31.14038086 262.12353516 C31.17468673 258.67299763 31.16103675 255.22502168 31.14160156 251.77441406 C31.14850018 249.58039276 31.1581727 247.38637806 31.17089844 245.19238281 C31.16593857 244.16205933 31.1609787 243.13173584 31.15586853 242.07019043 C31.22937733 237.59318906 31.27642397 234.91550472 33.64770508 231.03417969 C36.65358372 228.33981108 38.24807287 228.03684529 42.18701172 228.04760742 C43.56821701 228.04772072 43.56821701 228.04772072 44.97732544 228.0478363 C46.47113235 228.05557823 46.47113235 228.05557823 47.99511719 228.06347656 C49.52239944 228.06559898 49.52239944 228.06559898 51.08053589 228.06776428 C54.34115504 228.07337381 57.6017062 228.08592794 60.86230469 228.09863281 C63.06933495 228.10364658 65.27636628 228.1082097 67.48339844 228.11230469 C72.90139049 228.12334633 78.31934273 228.14009376 83.73730469 228.16113281 C83.4135083 227.55897949 83.08971191 226.95682617 82.75610352 226.33642578 C80.55200734 221.63033977 80.84778987 214.94793645 82.41308594 210.04394531 C83.23730469 208.41113281 83.23730469 208.41113281 84.73730469 206.16113281 C83.79371094 206.01417969 83.79371094 206.01417969 82.83105469 205.86425781 C73.30132927 204.19942626 65.71863085 201.07926935 59.73730469 193.16113281 C56.17023439 187.51219057 55.101539 182.79102378 55.23730469 176.16113281 C55.21410156 175.02804687 55.21410156 175.02804687 55.19042969 173.87207031 C55.23527936 167.34644312 57.11940266 162.11436161 61.47558594 157.20019531 C61.99507813 156.73355469 62.51457031 156.26691406 63.04980469 155.78613281 C64.80147642 153.82508714 65.6965929 152.72854432 65.88716125 150.07254028 C64.99892358 143.00464085 63.45748115 136.18231754 61.71777344 129.27832031 C61.26800896 127.45870285 61.26800896 127.45870285 60.80915833 125.60232544 C60.01504086 122.3949763 59.21498798 119.18918862 58.41192627 115.98406982 C57.60841022 112.77091175 56.81296049 109.5557584 56.01660156 106.34082031 C54.26535663 99.27878657 52.50357293 92.21942249 50.73730469 85.16113281 C50.53221283 84.34140991 50.32712097 83.52168701 50.11581421 82.67712402 C49.30811812 79.44925108 48.50026911 76.22141657 47.69213867 72.99365234 C46.75914038 69.24877709 45.83410636 65.50202672 44.91139221 61.75460815 C44.05284946 58.27032424 43.19058937 54.78696545 42.32788086 51.30371094 C41.88905754 49.52807595 41.45190834 47.75202646 41.01635742 45.97558594 C40.37444916 43.3592185 39.72637667 40.74444215 39.07714844 38.12988281 C38.88644272 37.34641479 38.695737 36.56294678 38.49925232 35.7557373 C37.24335461 30.73011816 35.63494379 25.98240238 33.73730469 21.16113281 C32.10317627 21.15496948 32.10317627 21.15496948 30.43603516 21.14868164 C26.3764783 21.12683474 22.31788307 21.07248852 18.25878906 21.00854492 C16.50530241 20.98541313 14.75167777 20.97098053 12.99804688 20.96557617 C10.47015885 20.95625082 7.94442651 20.91518646 5.41699219 20.86816406 C4.24944901 20.87406303 4.24944901 20.87406303 3.05831909 20.88008118 C-2.68777389 20.72761754 -5.24386719 19.2852271 -9.26269531 15.16113281 C-10.5150552 12.47528662 -10.62356893 10.093947 -10.26269531 7.16113281 C-7.50217801 1.92566897 -5.8194523 0.05114709 0 0 Z " fill="#543172" transform="translate(361.2626953125,303.8388671875)"/>
<path d="M0 0 C2.31184539 1.70697231 4.31253902 3.62711723 6.3125 5.6875 C6.745625 4.90375 7.17875 4.12 7.625 3.3125 C9.3125 0.6875 9.3125 0.6875 12.3125 -1.3125 C18.9477892 -2.07392663 18.9477892 -2.07392663 22.1328125 -0.296875 C24.81539576 1.85437535 26.21761669 3.40285008 27.3125 6.6875 C27.4194806 8.33270518 27.47114896 9.9817935 27.48950195 11.63037109 C27.50875481 13.13741104 27.50875481 13.13741104 27.52839661 14.67489624 C27.53578354 15.75928986 27.54317047 16.84368347 27.55078125 17.9609375 C27.558853 19.07683258 27.56692474 20.19272766 27.57524109 21.34243774 C27.58907617 23.70451302 27.5998009 26.06660824 27.60766602 28.42871094 C27.62489935 32.04139968 27.66879434 35.65317822 27.71289062 39.265625 C27.72301582 41.5598891 27.73153247 43.85416098 27.73828125 46.1484375 C27.75578934 47.22878265 27.77329742 48.30912781 27.79133606 49.42221069 C27.76961564 56.92820327 27.76961564 56.92820327 25.41088867 60.84619141 C21.82635151 63.99157585 19.13436456 64.0211576 14.50390625 63.9765625 C12.3125 63.6875 12.3125 63.6875 9.875 61.875 C8.65576043 60.1680646 7.4760719 58.43285785 6.3125 56.6875 C5.65894531 57.30238281 5.65894531 57.30238281 4.9921875 57.9296875 C-1.48794701 63.79266634 -6.85409709 65.21516676 -15.58203125 65.07421875 C-22.34312399 64.23227135 -28.89504345 60.47995655 -33.6875 55.6875 C-39.42255576 47.98909181 -42.2548997 40.34621237 -42.125 30.75 C-42.11670166 29.95803223 -42.10840332 29.16606445 -42.09985352 28.35009766 C-41.80252247 18.08000813 -37.87917366 11.86286601 -30.6875 4.6875 C-22.61625132 -2.77840503 -9.94996074 -6.09895742 0 0 Z " fill="#533775" transform="translate(404.6875,659.3125)"/>
<path d="M0 0 C0.74765625 -0.04898438 1.4953125 -0.09796875 2.265625 -0.1484375 C5.90376041 0.61808788 8.40801104 2.5677865 10.75 5.375 C11.43115234 8.78833008 11.43115234 8.78833008 11.3359375 12.64453125 C11.32744781 13.32553391 11.31895813 14.00653656 11.31021118 14.70817566 C11.27679302 16.86960485 11.20155986 19.0272119 11.125 21.1875 C11.09488432 22.65814898 11.06751129 24.12885684 11.04296875 25.59960938 C10.97704737 29.19263468 10.87361723 32.78344394 10.75 36.375 C11.41 36.375 12.07 36.375 12.75 36.375 C12.97816406 35.82714844 13.20632813 35.27929688 13.44140625 34.71484375 C15.13752476 31.68208258 17.29962729 29.46240988 19.6875 26.9375 C23.25986213 23.12899767 26.72085906 19.26767983 30.0480957 15.24267578 C41.84590459 0.97584733 41.84590459 0.97584733 48.375 -0.375 C52.85053416 0.61956315 54.79932289 1.84858102 57.75 5.375 C58.73482005 8.59748079 58.60967163 11.12853817 57.75 14.375 C55.87767766 17.8044389 53.39619699 20.51675383 50.75 23.375 C50.27320801 23.89175293 49.79641602 24.40850586 49.30517578 24.94091797 C44.97989362 29.62561923 44.97989362 29.62561923 43.01464844 31.68261719 C39.82879661 35.04742608 37.21622831 38.44904706 34.75 42.375 C40.72695609 50.08608262 46.77667622 57.7061349 53.13208008 65.11010742 C60.32272865 73.49762849 60.32272865 73.49762849 60.11328125 79.40625 C59.5420727 82.50183181 57.96367126 84.22643672 55.75 86.375 C51.83211415 88.33394292 47.97662037 88.35366752 43.75 87.375 C40.01623779 84.68400021 37.4452186 81.05650888 34.75 77.375 C34.1916748 76.61928711 33.63334961 75.86357422 33.05810547 75.08496094 C28.00760541 68.23768695 28.00760541 68.23768695 25.62207031 64.8894043 C25.0494043 64.09187744 24.47673828 63.29435059 23.88671875 62.47265625 C23.12427856 61.39769897 23.12427856 61.39769897 22.34643555 60.30102539 C20.665562 58.27312947 18.91197006 56.8657616 16.75 55.375 C16.13125 56.035 15.5125 56.695 14.875 57.375 C12.75 59.375 12.75 59.375 10.75 59.375 C10.76571045 60.01526123 10.7814209 60.65552246 10.79760742 61.31518555 C10.86017115 64.23086631 10.89905808 67.14640555 10.9375 70.0625 C10.96263672 71.06990234 10.98777344 72.07730469 11.01367188 73.11523438 C11.10673244 82.51435131 11.10673244 82.51435131 7.75 86.375 C3.80526839 88.34736581 -0.96065173 87.95875746 -5.25 87.375 C-7.77605704 85.08951982 -8.76068645 83.3536271 -10.25 80.375 C-10.36278955 78.06343993 -10.40941084 75.74856946 -10.42700195 73.43432617 C-10.43357315 72.72030136 -10.44014435 72.00627655 -10.44691467 71.27061462 C-10.46665642 68.90306497 -10.47831232 66.53557878 -10.48828125 64.16796875 C-10.49235678 63.35963404 -10.4964323 62.55129932 -10.50063133 61.71846962 C-10.5214961 57.43983846 -10.53579587 53.16123941 -10.54516602 48.88256836 C-10.55622969 44.46389775 -10.59062753 40.04573084 -10.63033772 35.62723827 C-10.6564882 32.22914191 -10.66485644 28.83116582 -10.66844749 25.43297768 C-10.67331777 23.80428987 -10.6849444 22.1756076 -10.70348549 20.54701805 C-10.72784412 18.26555912 -10.72691861 15.98540668 -10.7199707 13.70385742 C-10.72583694 12.40639084 -10.73170319 11.10892426 -10.73774719 9.7721405 C-10.16913439 5.81177411 -9.04406397 4.18082296 -6.25 1.375 C-3.99224185 0.24612092 -2.51243075 0.11109388 0 0 Z " fill="#523574" transform="translate(296.25,635.625)"/>
<path d="M0 0 C3.55227205 0.9039579 5.4278127 2.90109015 7.96484375 5.5 C9.37396471 8.31824192 9.07667928 10.67251282 9.0625 13.8203125 C9.05927734 15.07714844 9.05605469 16.33398438 9.05273438 17.62890625 C9.04435547 18.94761719 9.03597656 20.26632812 9.02734375 21.625 C9.02232864 22.96484211 9.01776576 24.304686 9.01367188 25.64453125 C9.00185461 28.92973206 8.98537992 32.21484397 8.96484375 35.5 C12.97039568 31.53962347 16.86356765 27.48537533 20.71484375 23.375 C21.33101562 22.71846436 21.9471875 22.06192871 22.58203125 21.38549805 C26.21756885 17.47853106 29.65332946 13.49694748 32.96484375 9.3125 C36.80930176 4.53712886 39.68034378 1.04741666 45.96484375 0 C49.76769726 0.63380892 51.96215801 2.12578337 54.96484375 4.5 C56.51961065 7.60953379 56.25128812 10.06266761 55.96484375 13.5 C52.27250515 20.72414074 45.75385628 26.66267521 40.12109375 32.4140625 C39.65719238 32.89786377 39.19329102 33.38166504 38.71533203 33.88012695 C37.40036926 35.24947139 36.06967028 36.60365231 34.73828125 37.95703125 C32.76978315 40.31013232 32.76978315 40.31013232 32.81640625 42.87890625 C34.51318295 46.75148164 37.13035453 49.52446766 39.96484375 52.625 C41.14962444 53.95467252 42.33321057 55.28541034 43.515625 56.6171875 C44.10037598 57.27170898 44.68512695 57.92623047 45.28759766 58.60058594 C57.67350919 72.62713495 57.67350919 72.62713495 58.40234375 77.3125 C57.78826367 81.78651198 56.1433696 83.32147415 52.96484375 86.5 C49.2935676 87.72375872 45.74652712 88.38747035 41.96484375 87.5 C37.42548777 84.25845726 34.32940536 80.62064592 31.21484375 76 C30.36019521 74.7667557 29.50336062 73.53502394 28.64453125 72.3046875 C28.20850586 71.67916992 27.77248047 71.05365234 27.32324219 70.40917969 C25.07681152 67.25190295 22.71390387 64.18687193 20.33984375 61.125 C19.90188477 60.55974609 19.46392578 59.99449219 19.01269531 59.41210938 C17.9987655 58.10650113 16.98213123 56.80299375 15.96484375 55.5 C13.49684328 56.65173355 11.9170081 57.54783565 9.96484375 59.5 C9.64391906 61.64608161 9.64391906 61.64608161 9.65625 64.11328125 C9.63111328 65.03173828 9.60597656 65.95019531 9.58007812 66.89648438 C9.54513495 68.82871278 9.51383953 70.76101086 9.48632812 72.69335938 C9.23256885 81.55017694 9.23256885 81.55017694 5.96484375 85.5 C3.30975947 87.58101201 1.39798726 88.41525453 -1.91015625 89.0625 C-5.68452271 88.38311404 -7.68399351 87.43343546 -10.52670288 84.87869263 C-14.04753535 79.32666271 -13.00312217 71.61415973 -12.9296875 65.24609375 C-12.93186494 63.54028408 -12.93626811 61.83447594 -12.9427948 60.12867737 C-12.94859192 56.56000081 -12.92967494 52.99255643 -12.89282227 49.42407227 C-12.84730623 44.85475152 -12.85994183 40.28781458 -12.89062977 35.71844387 C-12.90844236 32.19835667 -12.89717943 28.67882604 -12.87698936 25.15876961 C-12.87048306 23.47430583 -12.87257565 21.78978573 -12.88349342 20.10534477 C-12.89405195 17.74919194 -12.86586727 15.39656716 -12.82739258 13.04077148 C-12.83796692 12.34816727 -12.84854126 11.65556305 -12.85943604 10.94197083 C-12.78113806 8.18726473 -12.5321361 6.08761611 -10.72147179 3.94673347 C-7.06198693 0.8042964 -4.6839671 -0.28769088 0 0 Z " fill="#533675" transform="translate(614.03515625,635.5)"/>
<path d="M0 0 C2.8100346 1.79363911 4.50940468 3.01880935 6 6 C6.10829699 8.56576268 6.16133002 11.10924656 6.17578125 13.67578125 C6.19898388 15.24154984 6.22310139 16.80730508 6.24804688 18.37304688 C6.28312911 20.8418057 6.3124868 23.31007523 6.32592773 25.77905273 C6.3414395 28.16189924 6.3816705 30.54331465 6.42578125 32.92578125 C6.42387283 33.65928299 6.42196442 34.39278473 6.41999817 35.14851379 C6.53580134 40.02119291 7.48041171 42.60924652 11 46 C14.40461734 46.94111374 17.55355599 46.71382659 21 46 C23.82424288 43.80977082 25.41508603 42.16982793 27 39 C27.09608382 36.50684823 27.13705614 34.03646505 27.140625 31.54296875 C27.15895571 30.02277151 27.17852627 28.5025888 27.19921875 26.98242188 C27.228166 24.58593275 27.24999941 22.19037638 27.25048828 19.79370117 C27.25383058 17.48011551 27.28842291 15.16867994 27.328125 12.85546875 C27.3210553 12.14384079 27.3139856 11.43221283 27.30670166 10.69902039 C27.40238668 6.77103305 27.89481334 5.12875894 30.41308594 2.04614258 C33.67045051 -0.53029876 35.10310939 -0.62526636 39.0703125 -0.36328125 C41.88588244 0.16677544 43.76891557 1.22825648 46 3 C48.48705118 6.73057678 48.32326712 9.67716336 48.3359375 14 C48.3425943 14.79092041 48.3492511 15.58184082 48.35610962 16.39672852 C48.36623793 18.07452066 48.37092658 19.7523531 48.37060547 21.43017578 C48.37493719 23.96327049 48.41113553 26.49456222 48.44921875 29.02734375 C48.5244203 39.68800242 48.21066918 49.52745813 40.8125 57.9375 C32.05461157 65.82527424 21.31002644 66.67092117 10.06738281 66.18359375 C2.96092078 65.55250501 -3.12790359 62.09870555 -8 57 C-14.38774445 47.31423532 -14.30469078 38.59787962 -14.4050293 27.31030273 C-14.42665754 25.48003324 -14.46081748 23.6498685 -14.50756836 21.82006836 C-14.57452482 19.17254792 -14.60201201 16.52715341 -14.62109375 13.87890625 C-14.64892441 13.0641835 -14.67675507 12.24946075 -14.70542908 11.41004944 C-14.68537648 5.86283135 -14.68537648 5.86283135 -12.69804382 3.36094666 C-8.17422887 -0.52664959 -5.68901591 -0.81271656 0 0 Z " fill="#543875" transform="translate(695,658)"/>
<path d="M0 0 C3.67486811 2.13810508 5.64143001 3.46214501 8 7 C8.60839155 10.99800164 8.33251303 12.52201252 6 15.875 C2.85654613 18.10161316 0.95063064 18.66504606 -2.89453125 18.44140625 C-5.91310833 17.80856913 -8.30116747 16.38946793 -10.9765625 14.8984375 C-14.44452808 13.35860722 -17.25497873 13.61258401 -21 14 C-21.66 14.66 -22.32 15.32 -23 16 C-23.020587 18.08027518 -23.020587 18.08027518 -22 20 C-20.06288403 21.04454744 -20.06288403 21.04454744 -17.625 21.5625 C-16.72523438 21.80226563 -15.82546875 22.04203125 -14.8984375 22.2890625 C-13.94195312 22.52367187 -12.98546875 22.75828125 -12 23 C-3.51208951 25.08194031 3.99139865 27.06782239 9.07421875 34.75 C11.11307403 39.70519257 10.88784267 44.79518321 10 50 C7.15819336 56.67717725 1.4960018 60.24805742 -5 63 C-16.59605338 66.32901054 -29.526267 64.59134537 -39.9609375 58.9375 C-42.39187261 57.29405091 -43.80003251 55.60642316 -44.71875 52.8203125 C-45.36069194 49.05507611 -45.45452297 46.81023661 -43.5625 43.4375 C-39.95706468 41.41493872 -36.96932695 41.17334155 -33 42 C-30.44431925 43.18935867 -28.00458867 44.53163675 -25.53125 45.8828125 C-20.66559467 48.03030853 -15.955343 47.651781 -11 46 C-11.33 44.35 -11.66 42.7 -12 41 C-13.25103516 40.61908203 -13.25103516 40.61908203 -14.52734375 40.23046875 C-16.86367009 39.51592221 -19.19822882 38.79557778 -21.53125 38.0703125 C-23.56720016 37.44210265 -25.60733568 36.8267307 -27.65625 36.2421875 C-33.99231972 34.35438591 -37.88928316 31.88464634 -41.875 26.4375 C-43.78616457 20.59783047 -44.51276539 14.31520926 -41.8984375 8.5859375 C-32.81680785 -4.3808813 -13.7042087 -6.76609467 0 0 Z " fill="#543776" transform="translate(488,660)"/>
<path d="M0 0 C28.05 0 56.1 0 85 0 C84.34 1.98 83.68 3.96 83 6 C82.72412491 9.03105134 82.72412491 9.03105134 82.8125 12.0625 C82.81894531 13.06410156 82.82539062 14.06570313 82.83203125 15.09765625 C82.95407604 18.37329291 82.95407604 18.37329291 84 23 C56.94 23 29.88 23 2 23 C2 17.39 2 11.78 2 6 C1.34 4.02 0.68 2.04 0 0 Z " fill="#FAF9FA" transform="translate(481,509)"/>
<path d="M0 0 C4.02400124 0.32647557 6.23500055 1.61603001 9 4.625 C10.3125 7.375 10.3125 7.375 11 9.625 C11.38671875 9.14289062 11.7734375 8.66078125 12.171875 8.1640625 C12.69265625 7.53242187 13.2134375 6.90078125 13.75 6.25 C14.26046875 5.62351562 14.7709375 4.99703125 15.296875 4.3515625 C17.89402749 1.71866938 19.94322059 0.74626977 23.62109375 0.32421875 C33.14567849 0.28458802 33.14567849 0.28458802 37 3.625 C38.73631636 7.09763273 38.60190402 10.83693013 38 14.625 C35.81840855 17.38069447 34.12822506 19.06088747 31 20.625 C27.49314364 20.74500649 23.98915554 20.81479904 20.48046875 20.85546875 C16.66829394 21.69834017 15.39961922 22.82738654 13.02854919 25.85783386 C11.28115963 28.86005066 11.40750525 31.61670088 11.43359375 35.03515625 C11.42514183 36.07004433 11.42514183 36.07004433 11.41651917 37.12583923 C11.40016214 39.31376476 11.41553215 41.49964719 11.4375 43.6875 C11.45414224 45.87872882 11.46313532 48.06862198 11.44776917 50.25987244 C11.43429138 52.24490837 11.44963611 54.23007828 11.46655273 56.21508789 C10.92183263 60.19630487 9.80438074 61.807565 7 64.625 C4.72751762 65.76124119 3.21697236 65.88946843 0.6875 66 C-0.07175781 66.04898438 -0.83101562 66.09796875 -1.61328125 66.1484375 C-4.3695128 65.54396119 -5.98151429 64.50466308 -7.92637634 62.46472168 C-10.34335099 58.32308357 -9.70550217 53.18862517 -9.6640625 48.53515625 C-9.66884613 47.3578746 -9.67362976 46.18059296 -9.67855835 44.96763611 C-9.68195752 42.48044497 -9.67275417 39.99320917 -9.65185547 37.50610352 C-9.62511761 33.70422373 -9.65159424 29.90530303 -9.68359375 26.10351562 C-9.68028919 23.68488933 -9.67388202 21.26626487 -9.6640625 18.84765625 C-9.67418365 17.71312515 -9.68430481 16.57859406 -9.69473267 15.40968323 C-9.56454732 6.61659904 -9.56454732 6.61659904 -6.58740234 2.90649414 C-3.10652237 -0.1628419 -3.10652237 -0.1628419 0 0 Z " fill="#543775" transform="translate(555,657.375)"/>
<path d="M0 0 C0.825 -0.01289062 1.65 -0.02578125 2.5 -0.0390625 C6.06515803 0.9079326 8.1706908 2.47296275 10 5.625 C10.74871652 9.67460971 10.67656681 13.67691696 10.62890625 17.78515625 C10.63131821 18.96718124 10.63373016 20.14920624 10.63621521 21.36705017 C10.6352368 23.86265421 10.62184486 26.35827997 10.59692383 28.85375977 C10.5625912 32.67734299 10.57627377 36.49861872 10.59570312 40.32226562 C10.58880553 42.74740569 10.57913394 45.17253978 10.56640625 47.59765625 C10.57136612 48.74250992 10.57632599 49.88736359 10.58143616 51.06690979 C10.56559982 52.13158981 10.54976349 53.19626984 10.53344727 54.29321289 C10.52724869 55.22855362 10.52105011 56.16389435 10.5146637 57.12757874 C9.84792358 60.36295548 8.51076275 61.54924637 6 63.625 C2.55258453 65.34870774 -1.23035339 65.12806672 -5 64.625 C-7.50160818 62.74879387 -8.61945652 61.38608697 -10 58.625 C-10.11570235 56.95679145 -10.16954908 55.28411404 -10.19287109 53.61206055 C-10.20893402 52.56725021 -10.22499695 51.52243988 -10.24154663 50.44596863 C-10.28593806 45.66556394 -10.3270588 40.88529884 -10.35009766 36.10473633 C-10.36666456 33.58185608 -10.39396384 31.05902291 -10.43212891 28.53637695 C-10.48683189 24.9029093 -10.50876249 21.27054247 -10.5234375 17.63671875 C-10.54610687 16.50948898 -10.56877625 15.38225922 -10.59213257 14.22087097 C-10.57097949 6.39606281 -10.57097949 6.39606281 -7.62353516 2.41577148 C-4.79187424 0.48293761 -3.39528866 -0.05305139 0 0 Z " fill="#503472" transform="translate(520,658.375)"/>
<path d="M0 0 C4.20362508 1.52859094 6.7542389 3.09946756 9 7 C10.59743452 11.21141829 10.72533806 15.85552225 9.28125 20.125 C7.83681686 23.29343399 6.42083475 25.60392024 3.875 28 C-0.45898278 29.50747227 -4.46635519 29.66009868 -9 29 C-13.10923642 26.94538179 -15.36003098 25.26982924 -17 21 C-18.31722384 9.14498547 -18.31722384 9.14498547 -15.1875 4.3125 C-10.46417742 -0.68072673 -6.52133807 -0.66026009 0 0 Z " fill="#F7F6F7" transform="translate(401,676)"/>
<path d="M0 0 C2.70552388 2.19823815 4.44778333 3.89556667 6 7 C6.3768901 11.99379386 6.19468322 15.05989069 3 19 C-0.02926599 21.49072981 -2.11904534 22.85317422 -6 23.5 C-9.85379558 22.85770074 -11.99024197 21.4625293 -15 19 C-17.57224924 14.82665684 -17.69932104 10.77585103 -17 6 C-12.85630473 -0.95548849 -7.48367318 -2.10770118 0 0 Z " fill="#F7F4F7" transform="translate(527,551)"/>
<path d="M0 0 C4.08006708 1.53964796 7.01455868 3.02911736 9 7 C9.54500097 11.99584223 9.09938694 15.01507393 6 19 C3.13508271 21.97102534 0.12221192 22.75153986 -3.97265625 23.1328125 C-8.26481313 22.85163074 -10.88044954 20.04491377 -13.875 17.25 C-15.575323 13.849354 -15.77318399 10.66208054 -15 7 C-11.30521889 0.63676587 -7.09980019 -0.74038885 0 0 Z " fill="#583878" transform="translate(523,629)"/>
</svg>
